<?xml version="1.0" standalone="no"?>
<!DOCTYPE svg PUBLIC "-//W3C//DTD SVG 20010904//EN"
 "http://www.w3.org/TR/2001/REC-SVG-20010904/DTD/svg10.dtd">
<svg version="1.0" xmlns="http://www.w3.org/2000/svg"
 width="500.000000pt" height="500.000000pt" viewBox="0 0 500.000000 500.000000"
 preserveAspectRatio="xMidYMid meet">
<metadata>
Created by potrace 1.11, written by Peter Selinger 2001-2013
</metadata>
<g transform="translate(0.000000,500.000000) scale(0.100000,-0.100000)"
fill="#000000" stroke="none">
<path d="M200 4960 c0 -25 5 -41 13 -42 6 0 -8 -4 -33 -8 -25 -4 205 -7 510
-7 305 1 515 4 465 7 -49 3 -78 7 -62 8 25 2 27 5 27 42 l0 40 -460 0 -460 0
0 -40z"/>
<path d="M1790 4960 c0 -31 4 -40 18 -42 9 -1 -8 -4 -38 -8 -30 -4 112 -7 315
-7 204 0 356 2 340 4 -29 4 -30 6 -27 48 l4 45 -306 0 -306 0 0 -40z"/>
<path d="M3030 4960 c0 -25 5 -41 13 -41 6 -1 -4 -5 -23 -8 -20 -4 51 -10 164
-14 212 -7 695 3 636 14 -19 3 -30 7 -25 8 6 0 9 18 7 41 l-4 40 -384 0 -384
0 0 -40z"/>
<path d="M4610 4961 c0 -25 5 -42 13 -42 6 -1 -6 -5 -28 -9 -25 -4 19 -8 117
-9 128 -1 159 -4 172 -17 14 -14 16 -244 16 -2384 0 -2140 -2 -2370 -16 -2384
-13 -13 -44 -16 -172 -17 -98 -1 -142 -5 -117 -9 22 -4 34 -8 28 -9 -8 0 -13
-17 -13 -42 l0 -40 149 3 c167 3 189 11 223 79 17 32 18 168 18 2419 0 2251
-1 2387 -18 2419 -34 68 -56 76 -223 79 l-149 3 0 -40z"/>
<path d="M225 4830 c-35 -4 -47 -8 -30 -9 17 -1 24 -5 18 -8 -19 -7 -19 -4619
-1 -4626 7 -3 0 -6 -17 -8 -93 -7 142 -17 405 -17 306 1 651 12 535 18 -33 1
-50 5 -37 7 32 6 32 62 0 65 -60 4 220 15 392 15 164 1 376 -10 318 -15 -13
-2 -18 -11 -18 -31 0 -20 6 -31 18 -34 9 -3 -1 -6 -23 -7 -82 -6 145 -18 335
-18 162 0 365 11 295 17 -16 1 -20 8 -20 38 0 36 2 38 40 45 57 9 532 8 580
-1 22 -5 34 -9 26 -10 -9 -1 -12 -12 -9 -36 3 -26 0 -35 -12 -36 -8 -1 8 -5
35 -9 64 -10 653 -10 725 0 30 4 44 8 30 9 -14 1 -20 5 -15 9 13 9 14 62 0 63
-5 1 10 5 35 10 57 10 676 10 750 -1 30 -4 49 -8 43 -9 -7 0 -13 -14 -13 -30
0 -16 6 -32 13 -34 6 -3 -1 -6 -18 -8 -41 -3 84 -16 168 -18 l67 -1 0 2340 0
2340 -67 -1 c-84 -2 -209 -15 -168 -18 17 -2 24 -5 18 -8 -7 -2 -13 -18 -13
-34 0 -16 6 -30 13 -30 6 -1 -13 -5 -43 -9 -74 -11 -693 -11 -750 -1 -25 5
-40 9 -35 10 14 1 13 54 0 63 -5 4 1 8 15 9 14 1 0 5 -30 9 -73 11 -673 11
-730 1 -25 -5 -38 -9 -30 -10 12 -1 15 -10 12 -36 -3 -24 0 -35 9 -36 8 -1 -4
-5 -26 -10 -48 -9 -523 -10 -580 -1 -38 7 -40 9 -40 45 0 30 4 37 20 38 74 6
-125 17 -290 17 -194 0 -423 -12 -340 -18 22 -1 32 -4 23 -7 -12 -3 -18 -14
-18 -34 0 -20 5 -29 18 -31 58 -5 -154 -16 -318 -15 -172 0 -452 11 -392 15
17 2 22 8 22 31 0 23 -5 31 -22 34 -13 2 4 6 37 7 38 2 8 6 -80 11 -175 8
-749 8 -830 -1z m3841 -650 c69 -33 124 -63 122 -67 -177 -349 -267 -596 -377
-1038 -33 -134 -111 -476 -111 -488 0 -2 44 -3 98 -3 118 1 175 -18 226 -74
45 -50 60 -106 53 -198 -7 -94 -34 -149 -105 -212 -60 -54 -82 -62 -82 -30 0
41 -27 86 -59 100 -26 10 -46 10 -104 1 -39 -7 -73 -14 -75 -16 -12 -12 -33
-256 -38 -455 -7 -241 5 -419 30 -469 20 -38 67 -77 112 -91 87 -29 253 2 414
77 35 17 70 29 77 26 8 -3 13 -24 13 -57 0 -118 -110 -262 -252 -329 -135 -64
-209 -82 -343 -82 -114 0 -123 2 -188 32 -166 79 -253 247 -278 538 -10 120
-5 243 25 610 7 83 12 151 12 151 -2 3 -596 -93 -599 -97 -2 -2 -37 -67 -77
-144 -330 -631 -657 -980 -1015 -1080 -89 -25 -320 -31 -415 -11 -334 70 -564
407 -484 711 28 112 123 235 195 257 34 10 42 9 59 -7 26 -23 25 -31 -6 -100
-36 -78 -31 -173 13 -266 90 -191 233 -278 438 -266 245 13 447 179 660 542
52 89 205 366 205 372 0 2 -10 3 -22 3 -37 1 -101 35 -140 76 -56 59 -81 124
-86 224 -5 99 16 169 70 234 31 38 111 96 132 96 7 0 10 -26 8 -71 -3 -60 0
-78 23 -125 31 -64 83 -97 143 -92 33 3 39 9 81 78 221 369 605 925 794 1153
22 26 37 51 33 54 -3 4 -104 12 -223 19 -327 19 -442 48 -537 135 -121 110
-140 283 -41 385 23 24 51 44 62 44 18 0 21 -8 25 -55 10 -122 123 -196 348
-230 112 -17 338 -19 465 -4 163 19 279 75 483 231 48 36 93 67 100 67 7 1 69
-26 138 -59z"/>
<path d="M3484 3421 c-159 -174 -274 -344 -464 -680 -72 -128 -143 -252 -157
-274 l-25 -40 38 6 c22 3 123 16 226 28 l187 22 26 111 c63 265 166 670 198
774 19 61 31 111 28 111 -3 -1 -29 -27 -57 -58z"/>
<path d="M175 2500 c0 -1273 1 -1794 2 -1158 2 637 2 1679 0 2315 -1 637 -2
116 -2 -1157z"/>
<path d="M3120 101 c-74 -4 -119 -8 -100 -10 19 -1 29 -5 23 -8 -8 -2 -13 -22
-13 -44 l0 -39 388 0 388 0 0 40 c0 22 -4 41 -10 41 -6 1 5 5 24 9 26 6 14 8
-50 9 -47 0 -182 3 -300 5 -118 2 -276 0 -350 -3z"/>
<path d="M180 90 c25 -4 39 -8 33 -8 -8 -1 -13 -17 -13 -42 l0 -40 460 0 460
0 0 40 c0 37 -2 40 -27 42 -16 1 13 5 62 8 50 3 -160 6 -465 7 -305 0 -535 -3
-510 -7z"/>
<path d="M1770 90 c30 -4 47 -7 38 -8 -14 -2 -18 -11 -18 -42 l0 -40 306 0
306 0 -4 45 c-3 42 -2 44 27 48 16 2 -136 4 -340 4 -203 0 -345 -3 -315 -7z"/>
</g>
</svg>
